<svg width="64" height="64" viewBox="0 0 64 64" fill="none" xmlns="http://www.w3.org/2000/svg">
<rect width="64" height="64" rx="32" fill="#F4F4F6"/>
<path d="M32 56C18.7896 56 8 45.2795 8 32C8 18.7896 18.7205 8 32 8C45.1412 8 56 19.1354 56 32C56 45.2795 45.2795 56 32 56ZM32 51.0202C42.6513 51.0202 51.0202 42.4438 51.0202 32C51.0202 21.3487 42.4438 12.9798 32 12.9798C21.3487 12.9798 12.9798 21.5562 12.9798 32C12.9798 42.6513 21.5562 51.0202 32 51.0202ZM23.0086 37.3256C20.1037 37.3256 17.683 34.9049 17.683 32C17.683 29.0259 20.1037 26.6744 23.0086 26.6744C25.9827 26.6744 28.3343 29.0259 28.3343 32C28.3343 34.9049 25.9827 37.3256 23.0086 37.3256ZM40.9914 37.3256C38.0865 37.3256 35.6657 34.9741 35.6657 32C35.6657 29.0259 38.0865 26.6744 40.9914 26.6744C43.8963 26.6744 46.317 29.0259 46.317 32C46.317 34.9049 43.8963 37.3256 40.9914 37.3256Z" fill="#17171C"/>
</svg>
